<svg xmlns="http://www.w3.org/2000/svg" width="149" height="39" viewBox="0 0 149 39">
  <g fill="#5863F8" fill-rule="evenodd">
    <path d="M56.5181739 23.5576642C56.8031419 23.5576642 57.0372192 23.6700719 57.2204129 23.8948905 57.4036066 24.1197092 57.4952021 24.4058377 57.4952021 24.7532847 57.4952021 25.3459884 57.1288202 25.8467133 56.3960454 26.2554745 55.6836254 26.6642356 54.9050638 26.9810208 54.0603373 27.2058394 53.2156108 27.4306581 52.4065174 27.5430657 51.6330329 27.5430657 49.2718696 27.5430657 47.4094282 26.8532916 46.0456528 25.4737226 44.6818774 24.0941537 44 22.2087711 44 19.8175182 44 18.2846639 44.3002296 16.9255534 44.9006979 15.740146 45.5011661 14.5547386 46.34588 13.6350398 47.4348648 12.9810219 48.5238496 12.327004 49.7603885 12 51.1445188 12 53.1392946 12 54.7167723 12.6437892 55.8769991 13.9313869 57.0372259 15.2189845 57.6173306 16.9561934 57.6173306 19.1430657 57.6173306 19.960588 57.2509487 20.3693431 56.5181739 20.3693431L47.0837453 20.3693431C47.2872938 23.5372421 48.8037079 25.1211679 51.6330329 25.1211679 52.3861625 25.1211679 53.0375082 25.0189791 53.5870893 24.8145985 54.1366704 24.610218 54.7167751 24.3445272 55.3274208 24.0175182 55.3884853 23.9766421 55.5564104 23.8897817 55.8312009 23.7569343 56.1059915 23.6240869 56.3349802 23.5576642 56.5181739 23.5576642zM51.205583 14.2686131C50.0250014 14.2686131 49.0785148 14.6467115 48.3660948 15.4029197 47.6536748 16.1591279 47.2262293 17.221891 47.0837453 18.5912409L54.9610352 18.5912409C54.8999706 17.2014529 54.5488546 16.1335804 53.9076767 15.3875912 53.2664987 14.6416021 52.3658098 14.2686131 51.205583 14.2686131zM69.0363478 12C72.5984476 12 74.3794708 14.0131186 74.3794708 18.0394161L74.3794708 26.010219C74.3794708 26.4802943 74.2420776 26.8430644 73.967287 27.0985401 73.6924964 27.3540159 73.3108486 27.4817518 72.8223321 27.4817518 72.3541704 27.4817518 71.9826998 27.3489064 71.7079093 27.0832117 71.4331187 26.8175169 71.2957255 26.4598563 71.2957255 26.010219L71.2957255 18.1927007C71.2957255 16.9255411 71.0463823 15.9956234 70.5476883 15.4029197 70.0489943 14.810216 69.2704327 14.5138686 68.2119802 14.5138686 66.970334 14.5138686 65.972961 14.9021859 65.2198313 15.6788321 64.4667017 16.4554783 64.0901425 17.4978037 64.0901425 18.8058394L64.0901425 26.010219C64.0901425 26.4598563 63.9527493 26.8175169 63.6779587 27.0832117 63.4031682 27.3489064 63.0316976 27.4817518 62.5635359 27.4817518 62.0953742 27.4817518 61.718815 27.3489064 61.433847 27.0832117 61.1488791 26.8175169 61.0063972 26.4598563 61.0063972 26.010219L61.0063972 13.5328467C61.0063972 13.1036475 61.1539677 12.7510963 61.4491131 12.4751825 61.7442585 12.1992687 62.1157291 12.0613139 62.5635359 12.0613139 63.0113427 12.0613139 63.3675474 12.1941593 63.6321605 12.459854 63.8967736 12.7255488 64.0290782 13.0729906 64.0290782 13.5021898L64.0290782 14.7591241C64.5175948 13.8598495 65.1994722 13.1751848 66.074731 12.7051095 66.9499898 12.2350341 67.9371855 12 69.0363478 12zM89.6150044 24.9372263C90.0628112 24.9372263 90.4037499 25.0445245 90.6378308 25.2591241 90.8719116 25.4737237 90.9889503 25.7649617 90.9889503 26.1328467 90.9889503 26.5007318 90.8719116 26.7919697 90.6378308 27.0065693 90.4037499 27.221169 90.0628112 27.3284672 89.6150044 27.3284672L79.1730154 27.3284672C78.7252086 27.3284672 78.3690039 27.2007312 78.1043908 26.9452555 77.8397777 26.6897797 77.7074731 26.3678852 77.7074731 25.979562 77.7074731 25.5912389 77.8601322 25.2131405 78.1654551 24.8452555L86.6533876 14.7591241 78.9898226 14.7591241C78.5623706 14.7591241 78.2316092 14.6518259 77.9975284 14.4372263 77.7634475 14.2226267 77.6464088 13.9313887 77.6464088 13.5635036 77.6464088 13.1956186 77.7634475 12.9043806 77.9975284 12.689781 78.2316092 12.4751814 78.5623706 12.3678832 78.9898226 12.3678832L89.1264903 12.3678832C89.5539422 12.3678832 89.9050582 12.5007286 90.1798488 12.7664234 90.4546394 13.0321181 90.5920326 13.3489033 90.5920326 13.7167883 90.5920326 14.1051114 90.4393734 14.4832098 90.1340506 14.8510949L81.6461181 24.9372263 89.6150044 24.9372263zM104.636813 12.9810219C104.758942 12.674451 104.937044 12.4496358 105.171125 12.3065693 105.405206 12.1635029 105.654549 12.0919708 105.919163 12.0919708 106.305905 12.0919708 106.646844 12.2248162 106.941989 12.4905109 107.237134 12.7562057 107.384705 13.0729909 107.384705 13.4408759 107.384705 13.6452565 107.343996 13.8394151 107.262576 14.0233577L98.7746438 32.1109489C98.6525147 32.3970817 98.4744123 32.6167876 98.2403315 32.770073 98.0062506 32.9233584 97.7569074 33 97.4922943 33 97.1259069 33 96.7951454 32.8773735 96.5 32.6321168 96.2048546 32.3868601 96.0572841 32.0802938 96.0572841 31.7124088 96.0572841 31.5489043 96.1081705 31.3445268 96.2099448 31.0992701L98.3166618 26.5927007 92.4239605 14.0233577C92.342541 13.8598532 92.3018319 13.6759134 92.3018319 13.4715328 92.3018319 13.0832097 92.4646683 12.7562057 92.790346 12.4905109 93.1160237 12.2248162 93.4824056 12.0919708 93.8895028 12.0919708 94.5001484 12.0919708 94.9377713 12.3780993 95.2023844 12.950365L99.9348648 23.4963504 104.636813 12.9810219zM127.016865 12C130.355062 12 132.024135 14.0131186 132.024135 18.0394161L132.024135 26.010219C132.024135 26.4802943 131.881653 26.8430644 131.596685 27.0985401 131.311717 27.3540159 130.935158 27.4817518 130.466996 27.4817518 130.019189 27.4817518 129.652807 27.3540159 129.367839 27.0985401 129.082872 26.8430644 128.94039 26.4802943 128.94039 26.010219L128.94039 18.070073C128.94039 16.8233514 128.71649 15.9189809 128.268683 15.3569343 127.820876 14.7948877 127.118644 14.5138686 126.161966 14.5138686 125.042449 14.5138686 124.157026 14.8970765 123.50567 15.6635036 122.854315 16.4299308 122.528642 17.4773656 122.528642 18.8058394L122.528642 26.010219C122.528642 26.4802943 122.38616 26.8430644 122.101192 27.0985401 121.816224 27.3540159 121.439665 27.4817518 120.971503 27.4817518 120.523697 27.4817518 120.157315 27.3540159 119.872347 27.0985401 119.587379 26.8430644 119.444897 26.4802943 119.444897 26.010219L119.444897 18.070073C119.444897 16.8233514 119.220997 15.9189809 118.77319 15.3569343 118.325383 14.7948877 117.623151 14.5138686 116.666473 14.5138686 115.546956 14.5138686 114.656444 14.8970765 113.994911 15.6635036 113.333378 16.4299308 113.002617 17.4773656 113.002617 18.8058394L113.002617 26.010219C113.002617 26.4802943 112.860135 26.8430644 112.575167 27.0985401 112.290199 27.3540159 111.923817 27.4817518 111.47601 27.4817518 111.028204 27.4817518 110.656733 27.3540159 110.361588 27.0985401 110.066442 26.8430644 109.918872 26.4802943 109.918872 26.010219L109.918872 13.5328467C109.918872 13.0832094 110.071531 12.7255488 110.376854 12.459854 110.682177 12.1941593 111.048558 12.0613139 111.47601 12.0613139 111.903462 12.0613139 112.254578 12.1890498 112.529369 12.4445255 112.80416 12.7000013 112.941553 13.0525525 112.941553 13.5021898L112.941553 14.6364964C113.38936 13.7780979 114.010173 13.1240898 114.804013 12.6744526 115.597852 12.2248153 116.513807 12 117.551905 12 118.691777 12 119.633175 12.2350341 120.376127 12.7051095 121.119079 13.1751848 121.673741 13.900725 122.040128 14.8817518 122.487935 14.0029153 123.149458 13.3029223 124.024716 12.7817518 124.899975 12.2605813 125.897348 12 127.016865 12zM147.900843 23.5576642C148.185811 23.5576642 148.419889 23.6700719 148.603082 23.8948905 148.786276 24.1197092 148.877871 24.4058377 148.877871 24.7532847 148.877871 25.3459884 148.51149 25.8467133 147.778715 26.2554745 147.066295 26.6642356 146.287733 26.9810208 145.443007 27.2058394 144.59828 27.4306581 143.789187 27.5430657 143.015702 27.5430657 140.654539 27.5430657 138.792098 26.8532916 137.428322 25.4737226 136.064547 24.0941537 135.382669 22.2087711 135.382669 19.8175182 135.382669 18.2846639 135.682899 16.9255534 136.283367 15.740146 136.883836 14.5547386 137.728549 13.6350398 138.817534 12.9810219 139.906519 12.327004 141.143058 12 142.527188 12 144.521964 12 146.099442 12.6437892 147.259669 13.9313869 148.419895 15.2189845 149 16.9561934 149 19.1430657 149 19.960588 148.633618 20.3693431 147.900843 20.3693431L138.466415 20.3693431C138.669963 23.5372421 140.186377 25.1211679 143.015702 25.1211679 143.768832 25.1211679 144.420178 25.0189791 144.969759 24.8145985 145.51934 24.610218 146.099444 24.3445272 146.71009 24.0175182 146.771155 23.9766421 146.93908 23.8897817 147.21387 23.7569343 147.488661 23.6240869 147.71765 23.5576642 147.900843 23.5576642zM142.588252 14.2686131C141.407671 14.2686131 140.461184 14.6467115 139.748764 15.4029197 139.036344 16.1591279 138.608899 17.221891 138.466415 18.5912409L146.343705 18.5912409C146.28264 17.2014529 145.931524 16.1335804 145.290346 15.3875912 144.649168 14.6416021 143.748479 14.2686131 142.588252 14.2686131zM19.7132622 2.20948195C10.079784 2.20948195 2.24274297 9.93073758 2.24274297 19.4209045 2.24274297 28.9115132 10.079784 36.632327 19.7132622 36.632327 29.3467403 36.632327 37.1837814 28.9115132 37.1837814 19.4209045 37.1837814 9.93073758 29.3467403 2.20948195 19.7132622 2.20948195M19.7132622 38.8418089C8.84313553 38.8418089 0 30.1298216 0 19.4209045 0 8.71198734 8.84313553 0 19.7132622 0 30.5833888 0 39.4265243 8.71198734 39.4265243 19.4209045 39.4265243 30.1298216 30.5833888 38.8418089 19.7132622 38.8418089"/>
    <g stroke="#5863F8" transform="translate(8.485 7.8)">
      <path d="M9.16822897 22.864586C7.77771733 22.864586 6.64677371 21.722358 6.64677371 20.3188971L6.64677371 12.278874C6.64677371 11.915458 6.93796424 11.6209045 7.29723099 11.6209045 7.65649774 11.6209045 7.94724907 11.915458 7.94724907 12.278874L7.94724907 20.3188971C7.94724907 20.9968589 8.49493322 21.5490912 9.16822897 21.5490912L13.4680107 21.5490912C14.1386712 21.5490912 14.6845986 20.9968589 14.6845986 20.3188971L14.6845986 18.8301355C14.6845986 18.4671638 14.9753499 18.1726103 15.3346167 18.1726103 15.6938834 18.1726103 15.9846347 18.4671638 15.9846347 18.8301355L15.9846347 20.3188971C15.9846347 21.722358 14.8558871 22.864586 13.4680107 22.864586L9.16822897 22.864586zM14.6845986 10.963613L14.6845986 2.92644804C14.6845986 2.24606252 14.1386712 1.69225003 13.4680107 1.69225003L9.16822897 1.69225003C8.49493322 1.69225003 7.94724907 2.24606252 7.94724907 2.92644804L7.94724907 4.41423621C7.94724907 4.77752299 7.65649774 5.0715277 7.29723099 5.0715277 6.93796424 5.0715277 6.64677371 4.77752299 6.64677371 4.41423621L6.64677371 2.92644804C6.64677371 1.5208213 7.77771733.37722293 9.16822897.37722293L13.4680107.37722293C14.8558871.37722293 15.9846347 1.5208213 15.9846347 2.92644804L15.9846347 10.963613C15.9846347 11.3264556 15.6938834 11.6209045 15.3346167 11.6209045 14.9753499 11.6209045 14.6845986 11.3264556 14.6845986 10.963613z"/>
      <path d="M19.7245905,16.7316688 L15.2743678,16.7316688 C15.1046706,16.7316688 14.9414669,16.6641695 14.8211204,16.5438823 L7.08691039,8.81348164 L2.90205601,8.81348164 C2.24101611,8.81348164 1.70335302,9.3513126 1.70335302,10.0120269 L1.70335302,14.2523676 C1.70335302,14.9126492 2.24101611,15.4504801 2.90205601,15.4504801 L4.35660351,15.4504801 C4.71071656,15.4504801 4.99729705,15.7373522 4.99729705,16.0912908 C4.99729705,16.4447968 4.71071656,16.7316688 4.35660351,16.7316688 L2.90205601,16.7316688 C1.53408871,16.7316688 0.421533031,15.6192284 0.421533031,14.2523676 L0.421533031,10.0120269 C0.421533031,8.64473339 1.53408871,7.53229299 2.90205601,7.53229299 L7.35227873,7.53229299 C7.52240884,7.53229299 7.68517963,7.59979229 7.80552612,7.72007951 L15.5397362,15.4504801 L19.7245905,15.4504801 C20.3882278,15.4504801 20.9280554,14.9126492 20.9280554,14.2523676 L20.9280554,10.0120269 C20.9280554,9.3513126 20.3882278,8.81348164 19.7245905,8.81348164 L18.274372,8.81348164 C17.9206919,8.81348164 17.6336785,8.5270423 17.6336785,8.17310366 C17.6336785,7.81916502 17.9206919,7.53229299 18.274372,7.53229299 L19.7245905,7.53229299 C21.0951552,7.53229299 22.2098754,8.64473339 22.2098754,10.0120269 L22.2098754,14.2523676 C22.2098754,15.6192284 21.0951552,16.7316688 19.7245905,16.7316688"/>
    </g>
  </g>
</svg>
